:FULLY-SPECIFIED
:FORCE-ALL-JOINTS-BE-3DOF
:DEGREES
178
root 8.11672 16.7217 -12.2461 7.83044 6.75128 -2.00569
lfemur -26.1494 8.14707 -17.8234
ltibia 62.1023 -0 0
lfoot -9.83149 10.2243 -0.0179766
ltoes -1.85775 0 0
rfemur -20.4021 3.19605 26.5509
rtibia 27.6689 -0 0
rfoot -17.4109 1.64646 0.00140583
rtoes -15.3783 0 0
lowerback -4.43108 0.483818 0.444474
upperback -1.33517 0.58333 3.45684
thorax 1.08148 0.296906 3.3484
lowerneck -16.9608 -7.60576 -15.6506
upperneck 13.6357 -9.43112 15.9006
head 8.59419 -3.88981 6.78302
lclavicle -4.74596e-15 -1.82882e-14 0
lhumerus -47.2113 -12.1574 96.6431
lradius 32.4701 -0 0
lwrist 15.6035 0 0
lhand -12.8649 -25.5972 -0.00383734
lfingers 7.12502 0 0
lthumb 13.2235 3.96296 -0.00379359
rclavicle -4.74596e-15 -1.82882e-14 0
rhumerus -40.0613 11.1207 -79.2613
rradius 41.0719 -0 0
rwrist -20.8749 0 0
rhand -30.6013 -23.9035 -0.000832281
rfingers 7.12502 0 0
rthumb -3.89809 -53.8474 -0.000813806
179
root 8.11327 16.7117 -12.1268 7.78752 6.55311 -2.0566
lfemur -27.3399 8.04898 -18.0612
ltibia 61.9049 -0 0
lfoot -10.7815 10.4652 -0.0159788
ltoes -2.57442 0 0
rfemur -19.9631 3.36154 26.7125
rtibia 27.7556 -0 0
rfoot -17.7825 1.59828 0.00124963
rtoes -15.1687 0 0
lowerback -4.52623 0.593409 0.45683
upperback -0.980764 0.714715 3.45085
thorax 1.49213 0.357429 3.346
lowerneck -17.8925 -7.73121 -15.4789
upperneck 13.8552 -9.51919 15.7912
head 8.83398 -3.88882 6.69296
lclavicle -6.90774e-15 -1.43125e-14 0
lhumerus -46.5229 -11.9331 96.3087
lradius 32.5863 -0 0
lwrist 16.221 0 0
lhand -13.0065 -25.252 -0.00341096
lfingers 7.12502 0 0
lthumb 13.087 4.31693 -0.00337207
rclavicle -6.90774e-15 -1.43125e-14 0
rhumerus -38.924 10.7948 -78.8786
rradius 41.4523 -0 0
rwrist -20.8651 0 0
rhand -30.5144 -24.0255 -0.000739804
rfingers 7.12502 0 0
rthumb -3.81419 -53.9709 -0.000723383
180
root 8.10982 16.7017 -12.0076 7.7448 6.3549 -2.10734
lfemur -28.5297 7.94603 -18.2967
ltibia 61.7075 -0 0
lfoot -11.7316 10.7061 -0.00998604
ltoes -3.29109 0 0
rfemur -19.5235 3.5258 26.8753
rtibia 27.8424 -0 0
rfoot -18.154 1.5501 0.000781007
rtoes -14.9591 0 0
lowerback -4.62137 0.70302 0.469005
upperback -0.626361 0.846135 3.44566
thorax 1.90279 0.417968 3.34403
lowerneck -18.8249 -7.85387 -15.3051
upperneck 14.075 -9.60684 15.6814
head 9.07377 -3.88747 6.60291
lclavicle -9.06952e-15 -1.03368e-14 0
lhumerus -45.8364 -11.7049 95.9774
lradius 32.7024 -0 0
lwrist 16.8384 0 0
lhand -13.148 -24.9069 -0.00213183
lfingers 7.12502 0 0
lthumb 12.9505 4.67091 -0.00210752
rclavicle -9.06952e-15 -1.03368e-14 0
rhumerus -37.7902 10.4614 -78.5029
rradius 41.8328 -0 0
rwrist -20.8554 0 0
rhand -30.4275 -24.1474 -0.000462377
rfingers 7.12502 0 0
rthumb -3.73029 -54.0944 -0.000452114
181
root 8.10637 16.6917 -11.8883 7.70227 6.15665 -2.15791
lfemur -29.7187 7.83825 -18.53
ltibia 61.5101 0 0
lfoot -12.6816 10.9469 0
ltoes -4.00776 0 0
rfemur -19.0833 3.6888 27.0395
rtibia 27.9291 0 0
rfoot -18.5255 1.50193 0
rtoes -14.7495 0 0
lowerback -4.71648 0.812651 0.480998
upperback -0.271957 0.977584 3.44129
thorax 2.31344 0.478519 3.3425
lowerneck -19.7579 -7.97371 -15.1292
upperneck 14.295 -9.69407 15.5712
head 9.31356 -3.88573 6.51286
lclavicle -1.12313e-14 -6.36111e-15 0
lhumerus -45.1518 -11.4728 95.6492
lradius 32.8186 0 0
lwrist 17.4559 0 0
lhand -13.2896 -24.5618 0
lfingers 7.12502 0 0
lthumb 12.8141 5.02488 0
rclavicle -1.12313e-14 -6.36111e-15 0
rhumerus -36.6598 10.1208 -78.1344
rradius 42.2132 0 0
rwrist -20.8456 0 0
rhand -30.3406 -24.2694 0
rfingers 7.12502 0 0
rthumb -3.64639 -54.2179 0
182
root 8.10793 16.6846 -11.7625 7.65123 5.98396 -2.16994
lfemur -30.6224 7.72273 -18.7454
ltibia 60.6245 -0 0
lfoot -13.1735 11.1462 -0.0042792
ltoes -4.38802 0 0
rfemur -18.5015 3.79024 27.1398
rtibia 27.9023 -0 0
rfoot -18.8428 1.49422 0.000106727
rtoes -14.4669 0 0
lowerback -4.61866 0.91789 0.513574
upperback -0.549976 1.1291 3.40187
thorax 1.96693 0.558862 3.28327
lowerneck -18.6586 -7.80885 -15.2618
upperneck 14.0926 -9.58452 15.7005
head 9.04451 -3.8803 6.60822
lclavicle -1.07302e-14 -8.21644e-15 0
lhumerus -45.8688 -11.4768 95.8094
lradius 32.7581 -0 0
lwrist 17.3799 0 0
lhand -13.7354 -24.4389 -0.00239053
lfingers 7.12502 0 0
lthumb 12.3841 5.17182 -0.00275698
rclavicle -1.07302e-14 -8.21644e-15 0
rhumerus -37.06 9.88598 -78.0787
rradius 42.8038 -0 0
rwrist -21.1106 0 0
rhand -30.7745 -24.6242 0.00671882
rfingers 7.12502 0 0
rthumb -4.0653 -54.5631 0.00631067
183
root 8.10948 16.6774 -11.6367 7.60025 5.81127 -2.18181
lfemur -31.5255 7.60386 -18.9589
ltibia 59.7389 -0 0
lfoot -13.6654 11.3456 -0.00684686
ltoes -4.76828 0 0
rfemur -17.9194 3.89066 27.241
rtibia 27.8756 -0 0
rfoot -19.1601 1.48651 0.000170765
rtoes -14.1843 0 0
lowerback -4.52078 1.02307 0.54633
upperback -0.828115 1.28043 3.36172
thorax 1.62033 0.638846 3.22356
lowerneck -17.5602 -7.64149 -15.3911
upperneck 13.8905 -9.47451 15.8293
head 8.77548 -3.87442 6.70355
lclavicle -1.02291e-14 -1.00718e-14 0
lhumerus -46.5859 -11.4789 95.9696
lradius 32.6976 -0 0
lwrist 17.3039 0 0
lhand -14.1813 -24.316 -0.00382491
lfingers 7.12502 0 0
lthumb 11.9542 5.31877 -0.00441123
rclavicle -1.02291e-14 -1.00718e-14 0
rhumerus -37.4601 9.65156 -78.0213
rradius 43.3944 -0 0
rwrist -21.3755 0 0
rhand -31.2083 -24.9791 0.0107504
rfingers 7.12502 0 0
rthumb -4.48425 -54.9083 0.0100973
184
root 8.11104 16.6703 -11.5109 7.54931 5.63856 -2.19352
lfemur -32.4278 7.48167 -19.1705
ltibia 58.8533 -0 0
lfoot -14.1573 11.545 -0.00770277
ltoes -5.14854 0 0
rfemur -17.3371 3.99005 27.3434
rtibia 27.8488 -0 0
rfoot -19.4775 1.4788 0.000192111
rtoes -13.9016 0 0
lowerback -4.42283 1.1282 0.579268
upperback -1.10638 1.43156 3.32083
thorax 1.27364 0.718467 3.16336
lowerneck -16.4625 -7.47172 -15.5171
upperneck 13.6887 -9.36406 15.9578
head 8.50646 -3.86809 6.79885
lclavicle -9.72801e-15 -1.19271e-14 0
lhumerus -47.3029 -11.479 96.1299
lradius 32.6371 -0 0
lwrist 17.2279 0 0
lhand -14.6271 -24.1932 -0.00430305
lfingers 7.12502 0 0
lthumb 11.5242 5.46573 -0.00496266
rclavicle -9.72801e-15 -1.19271e-14 0
rhumerus -37.8602 9.41753 -77.9624
rradius 43.985 -0 0
rwrist -21.6405 0 0
rhand -31.6423 -25.3341 0.0120943
rfingers 7.12502 0 0
rthumb -4.90321 -55.2536 0.0113595
